<svg viewBox="0 0 575 575" class="roots-wrapper"><g transform="rotate(0 141.2 287.5)"><svg viewBoxSize="575" data-root-id="1270637500193" xmlns="http://www.w3.org/2000/svg" xmlns:xlink="http://www.w3.org/1999/xlink" xmlnsSerif="http://www.serif.com/" viewBox="401.427001953125 401.427001953125 1197.1429443359375 1197.1429443359375" version="1.1" xml:space="preserve" height="102.39973826871605" width="102.39973826871605" y="236.3" x="90" preserveAspectRatio="xMinYMin" zoom="1" editorType="buyer" data-layer-role="icon" style="fill-rule: evenodd; clip-rule: evenodd; stroke-linejoin: round; stroke-miterlimit: 2; position: absolute; height: 102.4px; width: 102.4px; top: 236.3px; left: 90px; transform: rotate(0deg);"><path d="M1135.64,1433.43L1218.21,1598.57L401.427,1598.57L1000,401.427L1102.86,607.148L689.721,1433.43L1135.64,1433.43Z" name="Layer %{number}" zoom="1" data-layer-id="2769553500193" style="fill: rgb(0, 0, 0); fill-opacity: 1;"></path><path d="M1190.27,781.974L1095.26,971.995L1408.55,1598.57L1598.57,1598.57L1190.27,781.974Z" name="Layer %{number}" zoom="1" data-layer-id="6476467300193" style="fill: rgb(108, 235, 35); fill-opacity: 1;"></path></svg></g><g transform="rotate(0 280.36 308.085)"><svg viewBoxSize="575" data-root-id="9200312568862" xmlns="http://www.w3.org/2000/svg" y="297.33037487379676" viewBox="2.4700000286102295 6.630000114440918 134.95999145507812 21.509998321533203" x="212.87968592245932" height="21.509998321533203" width="134.95999145507812" fontUrl="https://fonts.gstatic.com/s/ubuntu/v20/4iCs6KVjbNBYlgo6eAT3v02QFg.ttf" zoom="1" editorType="buyer" data-layer-role="slogan" style="position: absolute; top: 297.33px; width: 134.96px; height: 21.51px; left: 212.88px; transform: rotate(0deg);"><g data-horizontal-grow="left" zoom="1" root="[object Object]" style="fill: rgb(75, 203, 6); fill-opacity: 1;"><path d="M6.22 10.23L6.22 24.63Q6.54 24.66 7.08 24.68Q7.62 24.69 8.54 24.69L8.54 24.69Q12.32 24.69 14.17 22.77Q16.03 20.85 16.03 17.40L16.03 17.40Q16.03 13.89 14.22 12.02Q12.40 10.14 8.60 10.14L8.60 10.14Q6.93 10.14 6.22 10.23L6.22 10.23ZM19.96 17.40L19.96 17.40Q19.96 20.08 19.13 22.06Q18.29 24.04 16.76 25.36Q15.23 26.68 13.07 27.32Q10.92 27.96 8.30 27.96L8.30 27.96Q7.05 27.96 5.47 27.86Q3.90 27.75 2.47 27.43L2.47 27.43L2.47 7.41Q3.90 7.08 5.50 6.99Q7.11 6.90 8.36 6.90L8.36 6.90Q10.95 6.90 13.09 7.51Q15.23 8.12 16.76 9.42Q18.29 10.71 19.13 12.69Q19.96 14.67 19.96 17.40ZM28.53 27.72L28.53 7.11L32.28 7.11L32.28 27.72L28.53 27.72ZM51.31 9.94L51.31 9.94Q48.13 9.94 46.45 11.91Q44.77 13.89 44.77 17.40L44.77 17.40Q44.77 19.07 45.17 20.45Q45.57 21.83 46.36 22.82Q47.15 23.80 48.32 24.35Q49.50 24.90 51.08 24.90L51.08 24.90Q52.06 24.90 52.77 24.82Q53.49 24.75 53.90 24.63L53.90 24.63L53.90 17.22L57.65 17.22L57.65 27.13Q56.88 27.43 55.03 27.78Q53.19 28.14 50.78 28.14L50.78 28.14Q48.55 28.14 46.70 27.43Q44.86 26.71 43.57 25.34Q42.27 23.98 41.56 21.98Q40.84 19.99 40.84 17.40L40.84 17.40Q40.84 14.81 41.63 12.82Q42.42 10.83 43.79 9.44Q45.16 8.06 47.00 7.35Q48.85 6.63 50.93 6.63L50.93 6.63Q52.36 6.63 53.47 6.83Q54.59 7.02 55.39 7.26Q56.19 7.50 56.71 7.76Q57.23 8.03 57.44 8.15L57.44 8.15L56.31 11.21Q55.42 10.68 54.10 10.31Q52.77 9.94 51.31 9.94ZM66.46 27.72L66.46 7.11L70.20 7.11L70.20 27.72L66.46 27.72ZM77.52 7.11L93.97 7.11L93.97 10.35L87.64 10.35L87.64 27.72L83.86 27.72L83.86 10.35L77.52 10.35L77.52 7.11ZM117.32 27.72L113.28 27.72Q112.86 26.50 112.42 25.32Q111.97 24.13 111.55 22.88L111.55 22.88L102.87 22.88Q102.45 24.13 102.02 25.33Q101.59 26.53 101.17 27.72L101.17 27.72L97.27 27.72Q98.43 24.42 99.48 21.63Q100.52 18.83 101.51 16.33Q102.51 13.83 103.49 11.57Q104.47 9.31 105.51 7.11L105.51 7.11L109.05 7.11Q110.10 9.31 111.08 11.57Q112.06 13.83 113.06 16.33Q114.05 18.83 115.11 21.63Q116.16 24.42 117.32 27.72L117.32 27.72ZM107.21 11.10L107.21 11.10Q106.53 12.67 105.65 14.93Q104.77 17.19 103.82 19.84L103.82 19.84L110.60 19.84Q109.65 17.19 108.76 14.90Q107.86 12.61 107.21 11.10ZM128.15 24.48L137.43 24.48L137.43 27.72L124.40 27.72L124.40 7.11L128.15 7.11L128.15 24.48Z" transform="translate(0, 0)"></path></g></svg></g><g transform="rotate(0 348.94 271.526)"><svg viewBoxSize="575" data-root-id="8028294600193" xmlns="http://www.w3.org/2000/svg" y="256.1656800897729" viewBox="4.010000228881836 11.010000228881836 272.1199951171875 30.719999313354492" x="212.87968592245932" height="30.719999313354492" width="272.1199951171875" fontUrl="https://fonts.gstatic.com/s/montserrat/v29/JTUHjIg1_i6t8kCHKm4532VJOt5-QNFgpCu170w-Y3tcoqK5.ttf" zoom="1" editorType="buyer" data-layer-role="brandName" style="position: absolute; top: 256.166px; width: 272.12px; height: 30.72px; left: 212.88px; transform: rotate(0deg);"><g data-horizontal-grow="left" zoom="1" root="[object Object]" style="fill: rgb(0, 0, 0); fill-opacity: 1;"><path d="M25.17 41.30L4.01 41.30L4.01 11.43L9.56 11.43L9.56 36.61L25.17 36.61L25.17 41.30ZM41.51 41.30L35.97 41.30L35.97 11.43L41.51 11.43L41.51 41.30ZM61.27 41.30L55.98 41.30L55.98 11.43L60.54 11.43L73.60 33.24L71.21 33.24L84.05 11.43L88.62 11.43L88.66 41.30L83.41 41.30L83.37 19.67L84.48 19.67L73.55 37.89L71.08 37.89L59.99 19.67L61.27 19.67L61.27 41.30ZM125.52 41.30L103.12 41.30L103.12 11.43L124.92 11.43L124.92 16.08L108.67 16.08L108.67 36.65L125.52 36.65L125.52 41.30ZM123.09 28.41L108.24 28.41L108.24 23.85L123.09 23.85L123.09 28.41ZM147.37 41.73L147.37 41.73Q143.87 41.73 140.67 40.72Q137.47 39.72 135.59 38.14L135.59 38.14L137.51 33.83Q139.30 35.24 141.95 36.18Q144.59 37.12 147.37 37.12L147.37 37.12Q149.71 37.12 151.16 36.61Q152.61 36.09 153.30 35.22Q153.98 34.35 153.98 33.24L153.98 33.24Q153.98 31.87 153.00 31.04Q152.02 30.21 150.46 29.72Q148.90 29.23 147.00 28.80Q145.10 28.37 143.21 27.80Q141.31 27.22 139.75 26.30Q138.19 25.39 137.21 23.85Q136.23 22.31 136.23 19.92L136.23 19.92Q136.23 17.49 137.53 15.47Q138.83 13.44 141.50 12.22Q144.17 11.01 148.26 11.01L148.26 11.01Q150.95 11.01 153.59 11.69Q156.24 12.37 158.20 13.65L158.20 13.65L156.45 17.96Q154.45 16.77 152.31 16.19Q150.18 15.62 148.22 15.62L148.22 15.62Q145.91 15.62 144.49 16.17Q143.06 16.72 142.39 17.62Q141.73 18.52 141.73 19.67L141.73 19.67Q141.73 21.03 142.69 21.87Q143.65 22.70 145.21 23.17Q146.77 23.64 148.69 24.08Q150.61 24.53 152.51 25.09Q154.40 25.64 155.96 26.54Q157.52 27.43 158.48 28.97Q159.44 30.51 159.44 32.85L159.44 32.85Q159.44 35.24 158.14 37.27Q156.84 39.29 154.15 40.51Q151.46 41.73 147.37 41.73ZM197.88 41.30L192.33 41.30L192.33 11.43L197.88 11.43L197.88 41.30ZM176.89 41.30L171.34 41.30L171.34 11.43L176.89 11.43L176.89 41.30ZM192.76 28.50L176.42 28.50L176.42 23.76L192.76 23.76L192.76 28.50ZM226.30 41.73L226.30 41.73Q222.80 41.73 219.85 40.57Q216.91 39.42 214.73 37.35Q212.56 35.28 211.36 32.49Q210.17 29.69 210.17 26.37L210.17 26.37Q210.17 23.04 211.36 20.24Q212.56 17.45 214.73 15.38Q216.91 13.31 219.85 12.16Q222.80 11.01 226.25 11.01L226.25 11.01Q229.75 11.01 232.67 12.16Q235.60 13.31 237.77 15.38Q239.95 17.45 241.14 20.24Q242.34 23.04 242.34 26.37L242.34 26.37Q242.34 29.69 241.14 32.51Q239.95 35.33 237.77 37.37Q235.60 39.42 232.67 40.57Q229.75 41.73 226.30 41.73ZM226.25 36.86L226.25 36.86Q228.51 36.86 230.43 36.09Q232.35 35.33 233.76 33.90Q235.17 32.47 235.96 30.57Q236.75 28.67 236.75 26.37L236.75 26.37Q236.75 24.06 235.96 22.16Q235.17 20.27 233.76 18.84Q232.35 17.41 230.43 16.64Q228.51 15.87 226.25 15.87L226.25 15.87Q223.99 15.87 222.09 16.64Q220.19 17.41 218.77 18.84Q217.34 20.27 216.55 22.16Q215.76 24.06 215.76 26.37L215.76 26.37Q215.76 28.63 216.55 30.55Q217.34 32.47 218.74 33.90Q220.15 35.33 222.07 36.09Q223.99 36.86 226.25 36.86ZM266.23 41.30L260.68 41.30L260.68 16.13L250.79 16.13L250.79 11.43L276.13 11.43L276.13 16.13L266.23 16.13L266.23 41.30Z" transform="translate(0, 0)"></path></g></svg></g></svg>