<svg viewBox="0 0 575 575" class="roots-wrapper"><g transform="rotate(0 287.5 244.853)"><svg viewBoxSize="575" data-root-id="1270637500193" xmlns="http://www.w3.org/2000/svg" xmlns:xlink="http://www.w3.org/1999/xlink" xmlnsSerif="http://www.serif.com/" viewBox="401.427001953125 401.427001953125 1197.1429443359375 1197.1429443359375" version="1.1" xml:space="preserve" height="249.7059769944279" width="249.7059769944279" y="120" x="162.647" preserveAspectRatio="xMinYMin" zoom="1" editorType="buyer" data-layer-role="icon" style="fill-rule: evenodd; clip-rule: evenodd; stroke-linejoin: round; stroke-miterlimit: 2; position: absolute; height: 249.706px; width: 249.706px; top: 120px; left: 162.647px; transform: rotate(0deg);"><path d="M1135.64,1433.43L1218.21,1598.57L401.427,1598.57L1000,401.427L1102.86,607.148L689.721,1433.43L1135.64,1433.43Z" name="Layer %{number}" zoom="1" data-layer-id="2769553500193" style="fill: rgb(255, 255, 255); fill-opacity: 1;"></path><path d="M1190.27,781.974L1095.26,971.995L1408.55,1598.57L1598.57,1598.57L1190.27,781.974Z" name="Layer %{number}" zoom="1" data-layer-id="6476467300193" style="fill: rgb(108, 235, 35); fill-opacity: 1;"></path></svg></g><g transform="rotate(0 287.5 445.133)"><svg viewBoxSize="575" data-root-id="9200312568862" xmlns="http://www.w3.org/2000/svg" y="435.268" viewBox="2.2699999809265137 6.090000152587891 123.83000183105469 19.729999542236328" x="225.58499923706054" height="19.729999542236328" width="123.83000183105469" fontUrl="https://fonts.gstatic.com/s/ubuntu/v20/4iCs6KVjbNBYlgo6eAT3v02QFg.ttf" zoom="1" editorType="buyer" data-layer-role="slogan" style="position: absolute; top: 435.268px; width: 123.83px; height: 19.73px; left: 225.585px; transform: rotate(0deg);"><g data-horizontal-grow="center" zoom="1" root="[object Object]" style="fill: rgb(75, 203, 6); fill-opacity: 1;"><path d="M5.70 9.39L5.70 22.60Q6.00 22.63 6.50 22.64Q6.99 22.65 7.83 22.65L7.83 22.65Q11.30 22.65 13.01 20.89Q14.71 19.13 14.71 15.97L14.71 15.97Q14.71 12.75 13.05 11.03Q11.38 9.31 7.89 9.31L7.89 9.31Q6.36 9.31 5.70 9.39L5.70 9.39ZM18.31 15.97L18.31 15.97Q18.31 18.42 17.55 20.24Q16.79 22.05 15.38 23.27Q13.97 24.48 12.00 25.07Q10.02 25.66 7.61 25.66L7.61 25.66Q6.47 25.66 5.02 25.56Q3.58 25.46 2.27 25.16L2.27 25.16L2.27 6.80Q3.58 6.50 5.05 6.41Q6.52 6.33 7.67 6.33L7.67 6.33Q10.04 6.33 12.01 6.89Q13.97 7.45 15.38 8.64Q16.79 9.83 17.55 11.64Q18.31 13.46 18.31 15.97ZM26.17 25.44L26.17 6.52L29.61 6.52L29.61 25.44L26.17 25.44ZM47.08 9.12L47.08 9.12Q44.16 9.12 42.62 10.93Q41.08 12.75 41.08 15.97L41.08 15.97Q41.08 17.50 41.45 18.76Q41.81 20.03 42.54 20.93Q43.26 21.83 44.34 22.34Q45.42 22.84 46.86 22.84L46.86 22.84Q47.76 22.84 48.42 22.78Q49.07 22.71 49.46 22.60L49.46 22.60L49.46 15.80L52.89 15.80L52.89 24.89Q52.19 25.16 50.49 25.49Q48.80 25.82 46.59 25.82L46.59 25.82Q44.54 25.82 42.85 25.16Q41.16 24.51 39.97 23.25Q38.78 22.00 38.13 20.17Q37.47 18.34 37.47 15.97L37.47 15.97Q37.47 13.59 38.20 11.76Q38.92 9.93 40.18 8.67Q41.43 7.40 43.12 6.74Q44.82 6.09 46.73 6.09L46.73 6.09Q48.04 6.09 49.06 6.26Q50.08 6.44 50.82 6.66Q51.56 6.88 52.04 7.12Q52.51 7.37 52.70 7.48L52.70 7.48L51.67 10.29Q50.85 9.80 49.63 9.46Q48.42 9.12 47.08 9.12ZM60.97 25.44L60.97 6.52L64.41 6.52L64.41 25.44L60.97 25.44ZM71.13 6.52L86.22 6.52L86.22 9.50L80.41 9.50L80.41 25.44L76.94 25.44L76.94 9.50L71.13 9.50L71.13 6.52ZM107.65 25.44L103.93 25.44Q103.55 24.32 103.14 23.23Q102.73 22.14 102.35 20.99L102.35 20.99L94.38 20.99Q94.00 22.14 93.60 23.24Q93.21 24.35 92.83 25.44L92.83 25.44L89.25 25.44Q90.31 22.41 91.27 19.84Q92.22 17.28 93.14 14.98Q94.05 12.69 94.95 10.62Q95.85 8.54 96.81 6.52L96.81 6.52L100.06 6.52Q101.01 8.54 101.91 10.62Q102.81 12.69 103.73 14.98Q104.64 17.28 105.61 19.84Q106.58 22.41 107.65 25.44L107.65 25.44ZM98.37 10.18L98.37 10.18Q97.74 11.63 96.93 13.70Q96.13 15.78 95.25 18.20L95.25 18.20L101.48 18.20Q100.60 15.78 99.78 13.67Q98.97 11.57 98.37 10.18ZM117.58 22.46L126.10 22.46L126.10 25.44L114.14 25.44L114.14 6.52L117.58 6.52L117.58 22.46Z" transform="translate(0, 0)"></path></g></svg></g><g transform="rotate(0 287.5 411.59000000000003)"><svg viewBoxSize="575" data-root-id="8028294600193" xmlns="http://www.w3.org/2000/svg" y="397.495" viewBox="3.680000066757202 10.100000381469727 249.7100067138672 28.190000534057617" x="162.645" height="28.190000534057617" width="249.7100067138672" fontUrl="https://fonts.gstatic.com/s/montserrat/v29/JTUHjIg1_i6t8kCHKm4532VJOt5-QNFgpCu170w-Y3tcoqK5.ttf" zoom="1" editorType="buyer" data-layer-role="brandName" style="position: absolute; top: 397.495px; width: 249.71px; height: 28.19px; left: 162.645px; transform: rotate(0deg);"><g data-horizontal-grow="center" zoom="1" root="[object Object]" style="fill: rgb(255, 255, 255); fill-opacity: 1;"><path d="M23.10 37.90L3.68 37.90L3.68 10.49L8.77 10.49L8.77 33.59L23.10 33.59L23.10 37.90ZM38.09 37.90L33.00 37.90L33.00 10.49L38.09 10.49L38.09 37.90ZM56.22 37.90L51.37 37.90L51.37 10.49L55.56 10.49L67.54 30.50L65.34 30.50L77.13 10.49L81.32 10.49L81.36 37.90L76.54 37.90L76.50 18.05L77.52 18.05L67.50 34.77L65.23 34.77L55.05 18.05L56.22 18.05L56.22 37.90ZM115.18 37.90L94.63 37.90L94.63 10.49L114.64 10.49L114.64 14.76L99.72 14.76L99.72 33.63L115.18 33.63L115.18 37.90ZM112.95 26.07L99.33 26.07L99.33 21.89L112.95 21.89L112.95 26.07ZM135.23 38.29L135.23 38.29Q132.02 38.29 129.08 37.37Q126.15 36.45 124.42 35.00L124.42 35.00L126.19 31.05Q127.83 32.34 130.26 33.20Q132.68 34.06 135.23 34.06L135.23 34.06Q137.38 34.06 138.71 33.59Q140.04 33.12 140.67 32.32Q141.30 31.52 141.30 30.50L141.30 30.50Q141.30 29.25 140.40 28.48Q139.50 27.72 138.07 27.27Q136.64 26.82 134.90 26.43Q133.15 26.04 131.41 25.51Q129.67 24.98 128.24 24.14Q126.81 23.30 125.91 21.89Q125.01 20.48 125.01 18.28L125.01 18.28Q125.01 16.05 126.20 14.19Q127.40 12.33 129.85 11.22Q132.29 10.10 136.05 10.10L136.05 10.10Q138.52 10.10 140.95 10.73Q143.37 11.35 145.17 12.53L145.17 12.53L143.57 16.48Q141.73 15.39 139.77 14.86Q137.81 14.33 136.01 14.33L136.01 14.33Q133.90 14.33 132.59 14.84Q131.27 15.35 130.67 16.17Q130.06 16.99 130.06 18.05L130.06 18.05Q130.06 19.30 130.94 20.07Q131.82 20.83 133.25 21.26Q134.68 21.69 136.44 22.10Q138.20 22.51 139.95 23.02Q141.69 23.53 143.12 24.35Q144.55 25.17 145.43 26.58Q146.31 27.99 146.31 30.15L146.31 30.15Q146.31 32.34 145.11 34.20Q143.92 36.06 141.45 37.17Q138.99 38.29 135.23 38.29ZM181.58 37.90L176.49 37.90L176.49 10.49L181.58 10.49L181.58 37.90ZM162.32 37.90L157.23 37.90L157.23 10.49L162.32 10.49L162.32 37.90ZM176.89 26.15L161.89 26.15L161.89 21.81L176.89 21.81L176.89 26.15ZM207.66 38.29L207.66 38.29Q204.45 38.29 201.75 37.23Q199.05 36.18 197.05 34.28Q195.05 32.38 193.96 29.81Q192.86 27.25 192.86 24.20L192.86 24.20Q192.86 21.14 193.96 18.58Q195.05 16.01 197.05 14.11Q199.05 12.22 201.75 11.16Q204.45 10.10 207.62 10.10L207.62 10.10Q210.83 10.10 213.51 11.16Q216.19 12.22 218.19 14.11Q220.19 16.01 221.28 18.58Q222.38 21.14 222.38 24.20L222.38 24.20Q222.38 27.25 221.28 29.83Q220.19 32.42 218.19 34.30Q216.19 36.18 213.51 37.23Q210.83 38.29 207.66 38.29ZM207.62 33.83L207.62 33.83Q209.70 33.83 211.46 33.12Q213.22 32.42 214.51 31.11Q215.80 29.79 216.53 28.05Q217.25 26.31 217.25 24.20L217.25 24.20Q217.25 22.08 216.53 20.34Q215.80 18.60 214.51 17.29Q213.22 15.97 211.46 15.27Q209.70 14.56 207.62 14.56L207.62 14.56Q205.55 14.56 203.80 15.27Q202.06 15.97 200.75 17.29Q199.44 18.60 198.71 20.34Q197.99 22.08 197.99 24.20L197.99 24.20Q197.99 26.27 198.71 28.03Q199.44 29.79 200.73 31.11Q202.02 32.42 203.78 33.12Q205.55 33.83 207.62 33.83ZM244.30 37.90L239.22 37.90L239.22 14.80L230.13 14.80L230.13 10.49L253.39 10.49L253.39 14.80L244.30 14.80L244.30 37.90Z" transform="translate(0, 0)"></path></g></svg></g></svg>